<svg width="20" height="14" viewBox="0 0 20 14" fill="none" xmlns="http://www.w3.org/2000/svg">
<path d="M19 2V12C19 12.2652 18.8946 12.5196 18.7071 12.7071C18.5196 12.8946 18.2652 13 18 13H2C1.73478 13 1.48043 12.8946 1.29289 12.7071C1.10536 12.5196 1 12.2652 1 12V2M19 2C19 1.73478 18.8946 1.48043 18.7071 1.29289C18.5196 1.10536 18.2652 1 18 1H2C1.73478 1 1.48043 1.10536 1.29289 1.29289C1.10536 1.48043 1 1.73478 1 2M19 2L11.28 8.433C10.9206 8.73233 10.4677 8.89625 10 8.89625C9.53229 8.89625 9.07938 8.73233 8.72 8.433L1 2" stroke="#69533F" stroke-width="2" stroke-linecap="round" stroke-linejoin="round"/>
</svg>
